<svg id="SvgjsSvg1014" width="5000px" height="2135.936801311671px" xmlns="http://www.w3.org/2000/svg" version="1.1" xmlns:xlink="http://www.w3.org/1999/xlink" xmlns:svgjs="http://svgjs.com/svgjs" viewBox="0 0 314.484375 134.34375"><defs id="SvgjsDefs1015"></defs><g id="SvgjsG1017" transform="rotate(0 70 65.671875)"><svg width="140" viewBox="0 0 160.01519775390625 150.12872314453125" xmlns="http://www.w3.org/2000/svg" version="1.1" xmlns:xlink="http://www.w3.org/1999/xlink" xmlns:svgjs="http://svgjs.com/svgjs" preserveAspectRatio="none" height="131.34375" x="0" y="0"><g><svg viewBox="20.084800720214844 24.871273040771484 160.01519775390625 150.12872314453125" height="150.12872314453125" width="160.01519775390625" xmlns="http://www.w3.org/2000/svg" data-type="color">
    <g>
        <path d="M117.2 169.4c-5.1 0-10.3-.6-15.2-1.7-1.9-.4-3.7-.9-5.5-1.5-.6-.2-1-.8-.8-1.5.2-.6.8-1 1.5-.8 1.8.5 3.6 1 5.4 1.4 24 5.4 55.8-2.8 67.6-28.8 3-6.8 6.2-20 7.2-24.3-5.1-.1-22.5-.3-31.6-.7l-1.9-.1c-9.6-.4-22.9-1-34.1-2.4l-1.6-.2c-12.8-1.6-21.2-2.7-28.6-15.3-3.8-6.6-5.9-13.8-8-20.9-.9-3.3-1.9-6.7-3.1-9.9-4.2-12-11-18.1-20.6-18.6-1.9-.1-5.1.7-8.6 1.5-5.9 1.4-12.5 3-16.5 1.5.3 1.6.6 3.6.9 4.8C25.4 59.7 33.4 63.7 44 62c.4-.1.9-.2 1.3-.2 1.9-.4 4.1-.8 6.1.2 7.7 3.8 6.1 16.4 5 25.7-.3 2.5-.6 4.6-.6 6.2-.1 2.3-.2 4.6-.3 7-.6 14.1-1.2 28.8 6.2 40.6 2.4 3.8 5.4 6.5 9.2 9.3 1.5 1.1 3 2.1 4.5 3.1.5.4.7 1.1.4 1.6-.4.5-1.1.7-1.6.4-1.6-1-3.1-2.1-4.6-3.2-3.5-2.6-7.1-5.6-9.8-10-7.8-12.5-7.2-27.5-6.6-42 .1-2.3.2-4.7.3-6.9 0-1.7.3-3.9.6-6.4 1.1-8.5 2.5-20.3-3.6-23.3-1.3-.6-2.9-.3-4.6 0-.5.1-1 .2-1.4.3-12 1.9-21-2.8-23-12-.5-2.4-1.4-7.6-1.4-7.8-.1-.6.3-1.3 1-1.4.4-.1.9.1 1.2.5 2.2 3.1 10.2 1.1 16.6-.4 3.8-.9 7-1.7 9.2-1.6 10.6.5 18.3 7.3 22.8 20.1 1.2 3.3 2.1 6.7 3.1 10 2 6.9 4.1 14 7.7 20.3 6.8 11.6 14.4 12.6 26.9 14.2l1.6.2c11.1 1.4 24.3 2 33.9 2.4l1.9.1c10.7.5 32.7.7 32.9.7.7 0 1.2.5 1.2 1.2v.2c-.2.7-4 17.9-7.7 26.2-5.5 12.3-15.8 21.7-29.7 27.1-8.2 3.4-16.8 5-25.5 5z" data-color="1" fill="#000000"></path>
        <path d="M67.8 57.5c-.7 0-1.2-.5-1.2-1.2 0-.6.4-1.1 1-1.2 3.6-.6 6.1-2.1 8.1-5 3.2-4.4 3.6-15.4 1.9-21.7-4 4-8.7 5.8-14.6 7.9-4 1.4-5.8 5.8-5.7 7.8 0 .7-.5 1.2-1.1 1.2-.7 0-1.2-.5-1.2-1.1-.1-3.1 2.4-8.5 7.3-10.2 6.5-2.2 11-4 15-8.7.4-.5 1.2-.6 1.7-.1.1.1.3.3.3.4 2.5 5.9 2.8 19.8-1.5 25.8-2.4 3.3-5.5 5.2-9.7 5.9-.2.2-.2.2-.3.2z" data-color="1" fill="#000000"></path>
        <path d="M138.7 120.5c0 1.8-1.5 3.3-3.3 3.3-1.8 0-3.3-1.5-3.3-3.3 0-1.8 1.5-3.3 3.3-3.3 1.8 0 3.3 1.5 3.3 3.3z" data-color="1" fill="#000000"></path>
        <clipPath id="e4399b2e-9509-4f4e-850e-683e2f72e3f3"></clipPath>
        <path d="M112.7 142.7c-8.4 0-16.4-2.9-24.7-6-4.7-1.7-9.5-3.5-14.5-4.7-6-1.5-11.1-1.7-18.1-1.7-.7 0-1.2-.5-1.2-1.2s.5-1.2 1.2-1.2c6.9 0 12.5.3 18.6 1.8 5.1 1.2 10 3.1 14.7 4.8 12.6 4.6 24.5 9 38.1 2.6 3.1-1.4 6-3.2 8.9-4.9 4.5-2.6 9.1-5.3 14.2-7.1 6.7-2.3 12.2-2.2 18.1-2.2 2 0 4 0 6.2-.1.6 0 1.2.5 1.2 1.1 0 .7-.5 1.2-1.1 1.2-2.2.1-4.3.1-6.3.1-5.9 0-11.1 0-17.3 2.1-5 1.7-9.5 4.3-13.8 6.9-2.9 1.7-5.9 3.5-9.1 5-5.2 2.5-10.2 3.5-15.1 3.5z" clip-path="url(#e4399b2e-9509-4f4e-850e-683e2f72e3f3)" data-color="1" fill="#000000"></path>
        <clipPath id="efd16712-898a-48b5-b2c9-fc86fbddb4d3"></clipPath>
        <path d="M112.7 149.5c-8.4 0-16.4-2.9-24.7-6-4.7-1.7-9.5-3.5-14.5-4.7-6-1.5-11.1-1.7-18.1-1.7-.7 0-1.2-.5-1.2-1.2s.5-1.2 1.2-1.2c6.9 0 12.5.3 18.6 1.8 5.1 1.2 10 3.1 14.7 4.8 12.6 4.6 24.5 9 38.1 2.6 3.1-1.4 6-3.2 8.9-4.9 4.5-2.6 9.1-5.3 14.2-7.1 6.7-2.3 12.2-2.2 18.1-2.2 2 0 4 0 6.2-.1.6 0 1.2.5 1.2 1.1 0 .7-.5 1.2-1.1 1.2-2.2.1-4.3.1-6.3.1-5.9 0-11.1 0-17.3 2.1-5 1.7-9.5 4.3-13.8 6.9-2.9 1.7-5.9 3.5-9.1 5-5.2 2.5-10.2 3.5-15.1 3.5z" clip-path="url(#efd16712-898a-48b5-b2c9-fc86fbddb4d3)" data-color="1" fill="#000000"></path>
        <clipPath id="010dd40c-3dcf-4b3c-adec-ed10014a2649"></clipPath>
        <path d="M112.7 156.3c-8.4 0-16.4-2.9-24.7-6-4.7-1.7-9.5-3.5-14.5-4.7-6-1.5-11.1-1.7-18.1-1.7-.7 0-1.2-.5-1.2-1.2s.5-1.2 1.2-1.2c6.9 0 12.5.3 18.6 1.8 5.1 1.2 10 3.1 14.7 4.8 12.6 4.6 24.5 9 38.1 2.6 3.1-1.4 6-3.2 8.9-4.9 4.5-2.6 9.1-5.3 14.2-7.1 6.7-2.3 12.2-2.2 18.1-2.2 2 0 4 0 6.2-.1.7 0 1.2.5 1.2 1.2 0 .6-.5 1.1-1.1 1.2-2.2.1-4.3.1-6.3.1-5.9 0-11.1 0-17.3 2.1-5 1.7-9.5 4.3-13.8 6.9-2.9 1.7-5.9 3.5-9.1 5-5.2 2.4-10.2 3.3-15.1 3.4z" clip-path="url(#010dd40c-3dcf-4b3c-adec-ed10014a2649)" data-color="1" fill="#000000"></path>
        <clipPath id="9c7f819e-ff30-41eb-a423-e68dfef26a04"></clipPath>
        <path d="M112.7 163c-8.4 0-16.4-2.9-24.7-6-4.7-1.7-9.5-3.5-14.5-4.7-6-1.5-11.1-1.7-18.1-1.7-.7 0-1.2-.5-1.2-1.2s.5-1.2 1.2-1.2c6.9 0 12.5.3 18.6 1.8 5.1 1.2 10 3.1 14.7 4.8 12.6 4.6 24.5 9 38.1 2.6 3.1-1.4 6-3.2 8.9-4.9 4.5-2.6 9.1-5.3 14.2-7.1 6.7-2.3 12.2-2.2 18.1-2.2 2 0 4 0 6.2-.1.7 0 1.2.5 1.2 1.2 0 .6-.5 1.1-1.1 1.2-2.2.1-4.3.1-6.3.1-5.9 0-11.1 0-17.3 2.1-5 1.7-9.5 4.3-13.8 6.9-2.9 1.7-5.9 3.5-9.1 5-5.2 2.5-10.2 3.4-15.1 3.4z" clip-path="url(#9c7f819e-ff30-41eb-a423-e68dfef26a04)" data-color="1" fill="#000000"></path>
        <clipPath id="2a52f1bc-3ebf-4b5c-868b-99beaf4ae962"></clipPath>
        <path d="M112.7 169.8c-8.4 0-16.4-2.9-24.7-6-4.7-1.7-9.5-3.5-14.5-4.7-6-1.5-11.1-1.7-18.1-1.7-.7 0-1.2-.5-1.2-1.2s.5-1.2 1.2-1.2c6.9 0 12.5.3 18.6 1.8 5.1 1.2 10 3.1 14.7 4.8 12.6 4.6 24.5 9 38.1 2.6 3.1-1.4 6-3.2 8.9-4.9 4.5-2.6 9.1-5.3 14.2-7.1 6.7-2.3 12.2-2.2 18.1-2.2 2 0 4 0 6.2-.1.7 0 1.2.5 1.2 1.2 0 .6-.5 1.1-1.1 1.2-2.2.1-4.3.1-6.3.1-5.9 0-11.1 0-17.3 2.1-5 1.7-9.5 4.3-13.8 6.9-2.9 1.7-5.9 3.5-9.1 5-5.2 2.5-10.2 3.4-15.1 3.4z" clip-path="url(#2a52f1bc-3ebf-4b5c-868b-99beaf4ae962)" data-color="1" fill="#000000"></path>
        <path d="M103 155.1s-7.2 10.5-8.2 11.5c-9.1 9.1-28.3 10-37.2.3.5.6 11.1-7.8 12.3-8.6 8.2-5.6 13.5-10.7 33.1-3.2z" data-color="2" fill="#737373"></path>
        <path d="M75.5 175h-.7c-7.4-.2-14-2.8-18.1-7.4-.4-.5-.4-1.2.1-1.7.2-.2.5-.3.8-.3 1.4-.6 7.1-5 9.3-6.7 1.3-1 1.9-1.5 2.2-1.7.5-.3 1-.7 1.5-1 7.4-5.1 13.8-9.5 32.8-2.3.6.2.9.9.7 1.5 0 .1-.1.2-.1.2-1.2 1.8-7.3 10.6-8.3 11.7-4.8 4.9-12.3 7.7-20.2 7.7zm-15.9-7.8c3.7 3.3 9.2 5.3 15.2 5.4 7.5.1 14.7-2.4 19.1-6.9.6-.6 4.4-6.1 7.2-10.1-16.6-6-21.9-2.4-29.2 2.6-.5.3-1 .7-1.5 1-.2.2-1.1.8-2.1 1.6-4.4 3.5-7.1 5.4-8.7 6.4zm-1.2-1.2z" data-color="1" fill="#000000"></path>
    </g>
</svg></g><defs id="SvgjsDefs1016"></defs></svg></g><g id="SvgjsG1019" transform="rotate(0 235.34375 62.8515625)"><svg xmlns="http://www.w3.org/2000/svg" xmlns:xlink="http://www.w3.org/1999/xlink" width="148.6875" viewBox="4.28000020980835 19.170000076293945 148.69000244140625 77.02000427246094" overflow="visible" style="overflow: visible;" transform="" version="1.1" xmlns:svgjs="http://svgjs.com/svgjs" preserveAspectRatio="none" height="77.015625" x="161" y="24.34375" fill="#000000" stroke="none"><path stroke="none" fill="#000000" fill-opacity="0.99" d="M6.74 93.00L25.23 93.00L25.23 93.00Q25.71 92.68 26.23 92.68L26.23 92.68L26.23 92.68Q26.80 92.68 27.19 93.10L27.19 93.10L27.19 93.10Q27.59 93.52 27.59 94.10L27.59 94.10L27.59 94.10Q27.59 94.67 27.19 95.06L27.19 95.06L27.19 95.06Q26.80 95.45 26.23 95.45L26.23 95.45L26.23 95.45Q25.71 95.45 25.23 95.14L25.23 95.14L4.60 95.14L4.60 21.53L4.60 21.53Q4.28 21.06 4.28 20.58L4.28 20.58L4.28 20.58Q4.28 20.01 4.70 19.59L4.70 19.59L4.70 19.59Q5.12 19.17 5.69 19.17L5.69 19.17L5.69 19.17Q6.27 19.17 6.66 19.59L6.66 19.59L6.66 19.59Q7.05 20.01 7.05 20.58L7.05 20.58L7.05 20.58Q7.05 21.06 6.74 21.53L6.74 21.53L6.74 93.00ZM58.98 52.87L58.98 65.10L39.08 65.10L39.08 83.91L39.08 83.91Q39.08 85.79 39.52 87.62L39.52 87.62L39.52 87.62Q39.97 89.45 40.99 90.88L40.99 90.88L40.99 90.88Q42.00 92.32 43.73 93.21L43.73 93.21L43.73 93.21Q45.45 94.10 47.96 94.10L47.96 94.10L47.96 94.10Q50.42 94.10 52.09 93.31L52.09 93.31L52.09 93.31Q53.76 92.53 54.78 91.25L54.78 91.25L54.78 91.25Q55.80 89.97 56.27 88.30L56.27 88.30L56.27 88.30Q56.74 86.62 56.84 84.85L56.84 84.85L56.84 84.85Q56.69 84.69 56.58 84.43L56.58 84.43L56.58 84.43Q56.48 84.17 56.48 84.01L56.48 84.01L56.48 84.01Q56.48 83.44 56.90 83.02L56.90 83.02L56.90 83.02Q57.31 82.60 57.89 82.60L57.89 82.60L57.89 82.60Q58.46 82.60 58.88 83.02L58.88 83.02L58.88 83.02Q59.30 83.44 59.30 84.01L59.30 84.01L59.30 84.01Q59.30 84.17 59.22 84.43L59.22 84.43L59.22 84.43Q59.14 84.69 58.98 84.85L58.98 84.85L58.98 84.85Q58.83 87.04 58.23 89.08L58.23 89.08L58.23 89.08Q57.63 91.12 56.37 92.68L56.37 92.68L56.37 92.68Q55.12 94.25 53.05 95.22L53.05 95.22L53.05 95.22Q50.99 96.19 47.96 96.19L47.96 96.19L47.96 96.19Q44.83 96.19 42.71 95.11L42.71 95.11L42.71 95.11Q40.59 94.04 39.31 92.32L39.31 92.32L39.31 92.32Q38.03 90.59 37.49 88.40L37.49 88.40L37.49 88.40Q36.94 86.21 36.94 83.91L36.94 83.91L36.94 52.87L36.94 52.87Q36.94 50.57 37.49 48.38L37.49 48.38L37.49 48.38Q38.03 46.19 39.31 44.46L39.31 44.46L39.31 44.46Q40.59 42.74 42.71 41.67L42.71 41.67L42.71 41.67Q44.83 40.60 47.96 40.60L47.96 40.60L47.96 40.60Q51.10 40.60 53.19 41.67L53.19 41.67L53.19 41.67Q55.28 42.74 56.58 44.46L56.58 44.46L56.58 44.46Q57.89 46.19 58.44 48.38L58.44 48.38L58.44 48.38Q58.98 50.57 58.98 52.87L58.98 52.87ZM39.08 62.96L56.84 62.96L56.84 52.87L56.84 52.87Q56.84 51.04 56.42 49.22L56.42 49.22L56.42 49.22Q56.01 47.39 54.99 45.95L54.99 45.95L54.99 45.95Q53.97 44.51 52.25 43.60L52.25 43.60L52.25 43.60Q50.52 42.69 47.96 42.69L47.96 42.69L47.96 42.69Q45.45 42.69 43.73 43.60L43.73 43.60L43.73 43.60Q42.00 44.51 40.99 45.95L40.99 45.95L40.99 45.95Q39.97 47.39 39.52 49.22L39.52 49.22L39.52 49.22Q39.08 51.04 39.08 52.87L39.08 52.87L39.08 62.96ZM78.89 43.78L78.89 83.59L78.89 83.59Q78.89 85.53 79.31 87.30L79.31 87.30L79.31 87.30Q79.73 89.08 80.69 90.49L80.69 90.49L80.69 90.49Q81.66 91.90 83.28 92.79L83.28 92.79L83.28 92.79Q84.90 93.68 87.25 93.73L87.25 93.73L87.25 93.73Q87.72 93.42 88.24 93.42L88.24 93.42L88.24 93.42Q88.82 93.42 89.21 93.83L89.21 93.83L89.21 93.83Q89.60 94.25 89.60 94.83L89.60 94.83L89.60 94.83Q89.60 95.40 89.21 95.79L89.21 95.79L89.21 95.79Q88.82 96.19 88.24 96.19L88.24 96.19L88.24 96.19Q87.72 96.19 87.25 95.87L87.25 95.87L87.25 95.87Q84.27 95.77 82.26 94.67L82.26 94.67L82.26 94.67Q80.25 93.57 79.02 91.87L79.02 91.87L79.02 91.87Q77.79 90.18 77.27 88.01L77.27 88.01L77.27 88.01Q76.75 85.84 76.75 83.59L76.75 83.59L76.75 43.78L71.94 43.78L71.94 43.78Q71.63 44.10 71.10 44.10L71.10 44.10L71.10 44.10Q70.53 44.10 70.11 43.68L70.11 43.68L70.11 43.68Q69.69 43.26 69.69 42.69L69.69 42.69L69.69 42.69Q69.69 42.11 70.11 41.72L70.11 41.72L70.11 41.72Q70.53 41.33 71.10 41.33L71.10 41.33L71.10 41.33Q71.63 41.33 71.94 41.64L71.94 41.64L76.75 41.64L76.75 25.71L76.75 25.71Q76.43 25.18 76.43 24.71L76.43 24.71L76.43 24.71Q76.43 24.14 76.85 23.75L76.85 23.75L76.85 23.75Q77.27 23.35 77.84 23.35L77.84 23.35L77.84 23.35Q78.42 23.35 78.84 23.75L78.84 23.75L78.84 23.75Q79.26 24.14 79.26 24.71L79.26 24.71L79.26 24.71Q79.26 25.08 78.89 25.71L78.89 25.71L78.89 41.64L87.25 41.64L87.25 41.64Q87.72 41.33 88.24 41.33L88.24 41.33L88.24 41.33Q88.82 41.33 89.21 41.72L89.21 41.72L89.21 41.72Q89.60 42.11 89.60 42.69L89.60 42.69L89.60 42.69Q89.60 43.26 89.21 43.68L89.21 43.68L89.21 43.68Q88.82 44.10 88.24 44.10L88.24 44.10L88.24 44.10Q87.72 44.10 87.25 43.78L87.25 43.78L78.89 43.78ZM114.47 21.94L103.65 32.76L103.65 32.76Q103.65 33.33 103.26 33.75L103.26 33.75L103.26 33.75Q102.87 34.17 102.29 34.17L102.29 34.17L102.29 34.17Q101.72 34.17 101.30 33.75L101.30 33.75L101.30 33.75Q100.88 33.33 100.88 32.76L100.88 32.76L100.88 32.76Q100.88 32.29 101.22 31.87L101.22 31.87L101.22 31.87Q101.56 31.45 102.14 31.35L102.14 31.35L113.06 20.43L113.06 20.43Q113.06 19.96 113.48 19.57L113.48 19.57L113.48 19.57Q113.89 19.17 114.47 19.17L114.47 19.17L114.47 19.17Q115.04 19.17 115.46 19.59L115.46 19.59L115.46 19.59Q115.88 20.01 115.88 20.58L115.88 20.58L115.88 20.58Q115.88 21.16 115.46 21.55L115.46 21.55L115.46 21.55Q115.04 21.94 114.47 21.94L114.47 21.94ZM136.04 61.55L148.22 72.47L148.22 72.47Q149.58 73.72 150.46 75.03L150.46 75.03L150.46 75.03Q151.35 76.33 151.85 77.69L151.85 77.69L151.85 77.69Q152.35 79.05 152.53 80.41L152.53 80.41L152.53 80.41Q152.71 81.77 152.71 83.07L152.71 83.07L152.71 83.07Q152.71 85.79 152.16 88.19L152.16 88.19L152.16 88.19Q151.61 90.59 150.28 92.37L150.28 92.37L150.28 92.37Q148.95 94.15 146.70 95.17L146.70 95.17L146.70 95.17Q144.46 96.19 141.06 96.19L141.06 96.19L141.06 96.19Q137.82 96.19 135.63 95.19L135.63 95.19L135.63 95.19Q133.43 94.20 132.05 92.55L132.05 92.55L132.05 92.55Q130.66 90.91 129.98 88.77L129.98 88.77L129.98 88.77Q129.31 86.62 129.20 84.33L129.20 84.33L129.20 84.33Q129.04 84.17 128.97 83.91L128.97 83.91L128.97 83.91Q128.89 83.65 128.89 83.38L128.89 83.38L128.89 83.38Q128.89 82.81 129.28 82.39L129.28 82.39L129.28 82.39Q129.67 81.97 130.25 81.97L130.25 81.97L130.25 81.97Q130.82 81.97 131.24 82.39L131.24 82.39L131.24 82.39Q131.66 82.81 131.66 83.38L131.66 83.38L131.66 83.38Q131.66 83.59 131.45 84.01L131.45 84.01L131.45 84.01Q131.50 85.89 132.05 87.72L132.05 87.72L132.05 87.72Q132.60 89.55 133.72 90.99L133.72 90.99L133.72 90.99Q134.84 92.42 136.65 93.31L136.65 93.31L136.65 93.31Q138.45 94.20 141.06 94.20L141.06 94.20L141.06 94.20Q144.09 94.20 145.97 93.23L145.97 93.23L145.97 93.23Q147.85 92.27 148.90 90.67L148.90 90.67L148.90 90.67Q149.94 89.08 150.28 87.09L150.28 87.09L150.28 87.09Q150.62 85.11 150.62 83.07L150.62 83.07L150.62 83.07Q150.62 80.41 149.66 78.08L149.66 78.08L149.66 78.08Q148.69 75.76 146.76 73.93L146.76 73.93L134.63 63.06L134.63 63.06Q133.38 61.91 132.62 60.79L132.62 60.79L132.62 60.79Q131.87 59.67 131.45 58.44L131.45 58.44L131.45 58.44Q131.03 57.21 130.87 55.90L130.87 55.90L130.87 55.90Q130.72 54.60 130.72 53.08L130.72 53.08L130.72 53.08Q130.72 50.63 131.29 48.38L131.29 48.38L131.29 48.38Q131.87 46.13 133.20 44.41L133.20 44.41L133.20 44.41Q134.53 42.69 136.67 41.64L136.67 41.64L136.67 41.64Q138.81 40.60 141.95 40.60L141.95 40.60L141.95 40.60Q144.77 40.60 146.76 41.54L146.76 41.54L146.76 41.54Q148.74 42.48 149.99 44.04L149.99 44.04L149.99 44.04Q151.25 45.61 151.88 47.62L151.88 47.62L151.88 47.62Q152.50 49.63 152.61 51.83L152.61 51.83L152.61 51.83Q152.97 52.14 152.97 52.66L152.97 52.66L152.97 52.66Q152.97 53.24 152.55 53.66L152.55 53.66L152.55 53.66Q152.14 54.07 151.56 54.07L151.56 54.07L151.56 54.07Q151.09 54.07 150.67 53.66L150.67 53.66L150.67 53.66Q150.26 53.24 150.26 52.66L150.26 52.66L150.26 52.66Q150.26 52.25 150.62 51.93L150.62 51.93L150.62 51.93Q150.52 50.21 149.99 48.54L149.99 48.54L149.99 48.54Q149.47 46.86 148.43 45.58L148.43 45.58L148.43 45.58Q147.38 44.30 145.79 43.49L145.79 43.49L145.79 43.49Q144.20 42.69 141.95 42.69L141.95 42.69L141.95 42.69Q139.44 42.69 137.69 43.57L137.69 43.57L137.69 43.57Q135.94 44.46 134.87 45.90L134.87 45.90L134.87 45.90Q133.80 47.33 133.33 49.22L133.33 49.22L133.33 49.22Q132.86 51.10 132.86 53.08L132.86 53.08L132.86 53.08Q132.91 56.16 133.59 58.10L133.59 58.10L133.59 58.10Q134.27 60.03 136.04 61.55L136.04 61.55Z" transform="rotate(0 78.62500143051147 57.680002212524414)"></path><defs id="SvgjsDefs1018"></defs></svg></g><g id="SvgjsG1021" transform="rotate(0 237.7421875 115.8515625)"><svg xmlns="http://www.w3.org/2000/svg" xmlns:xlink="http://www.w3.org/1999/xlink" width="153.484375" viewBox="0.36000001430511475 4 153.49000549316406 16.989999771118164" overflow="visible" style="overflow: visible;" transform="" version="1.1" xmlns:svgjs="http://svgjs.com/svgjs" preserveAspectRatio="none" height="16.984375" x="161" y="107.359375" fill="#000000" stroke="none"><path stroke="none" fill="#000000" d="M6.19 16.20L6.57 16.83L6.57 16.83Q6.23 17.15 5.72 17.33L5.72 17.33L5.72 17.33Q5.20 17.50 4.64 17.50L4.64 17.50L4.64 17.50Q3.42 17.50 2.75 16.82L2.75 16.82L2.75 16.82Q2.09 16.15 2.09 14.94L2.09 14.94L2.09 8.80L0.36 8.80L0.36 8.03L2.09 8.03L2.09 5.98L2.99 5.98L2.99 8.03L5.98 8.03L5.98 8.80L2.99 8.80L2.99 14.85L2.99 14.85Q2.99 15.77 3.43 16.25L3.43 16.25L3.43 16.25Q3.87 16.72 4.73 16.72L4.73 16.72L4.73 16.72Q5.62 16.72 6.19 16.20L6.19 16.20ZM9.94 10.08L9.94 10.08Q10.37 9.05 11.29 8.51L11.29 8.51L11.29 8.51Q12.20 7.96 13.52 7.96L13.52 7.96L13.52 8.84L13.30 8.82L13.30 8.82Q11.74 8.82 10.85 9.80L10.85 9.80L10.85 9.80Q9.97 10.78 9.97 12.53L9.97 12.53L9.97 17.42L9.07 17.42L9.07 8.03L9.94 8.03L9.94 10.08ZM16.16 17.42L16.16 8.03L17.06 8.03L17.06 17.42L16.16 17.42ZM16.61 5.74L16.61 5.74Q16.31 5.74 16.09 5.54L16.09 5.54L16.09 5.54Q15.88 5.33 15.88 5.02L15.88 5.02L15.88 5.02Q15.88 4.72 16.09 4.50L16.09 4.50L16.09 4.50Q16.31 4.28 16.61 4.28L16.61 4.28L16.61 4.28Q16.92 4.28 17.14 4.49L17.14 4.49L17.14 4.49Q17.35 4.70 17.35 5.00L17.35 5.00L17.35 5.00Q17.35 5.31 17.14 5.53L17.14 5.53L17.14 5.53Q16.92 5.74 16.61 5.74L16.61 5.74ZM25.58 7.96L25.58 7.96Q26.89 7.96 27.95 8.57L27.95 8.57L27.95 8.57Q29.02 9.18 29.62 10.26L29.62 10.26L29.62 10.26Q30.22 11.34 30.22 12.73L30.22 12.73L30.22 12.73Q30.22 14.11 29.62 15.20L29.62 15.20L29.62 15.20Q29.02 16.29 27.95 16.89L27.95 16.89L27.95 16.89Q26.89 17.50 25.58 17.50L25.58 17.50L25.58 17.50Q24.34 17.50 23.33 16.91L23.33 16.91L23.33 16.91Q22.32 16.33 21.76 15.28L21.76 15.28L21.76 20.92L20.86 20.92L20.86 8.03L21.73 8.03L21.73 10.24L21.73 10.24Q22.28 9.16 23.30 8.56L23.30 8.56L23.30 8.56Q24.32 7.96 25.58 7.96L25.58 7.96ZM25.52 16.69L25.52 16.69Q26.60 16.69 27.47 16.18L27.47 16.18L27.47 16.18Q28.33 15.68 28.83 14.78L28.83 14.78L28.83 14.78Q29.32 13.88 29.32 12.73L29.32 12.73L29.32 12.73Q29.32 11.57 28.83 10.67L28.83 10.67L28.83 10.67Q28.33 9.77 27.47 9.27L27.47 9.27L27.47 9.27Q26.60 8.77 25.52 8.77L25.52 8.77L25.52 8.77Q24.44 8.77 23.59 9.27L23.59 9.27L23.59 9.27Q22.73 9.77 22.24 10.67L22.24 10.67L22.24 10.67Q21.74 11.57 21.74 12.73L21.74 12.73L21.74 12.73Q21.74 13.88 22.24 14.78L22.24 14.78L22.24 14.78Q22.73 15.68 23.59 16.18L23.59 16.18L23.59 16.18Q24.44 16.69 25.52 16.69L25.52 16.69ZM35.39 17.50L35.39 17.50Q34.25 17.50 33.23 17.15L33.23 17.15L33.23 17.15Q32.20 16.81 31.63 16.29L31.63 16.29L32.04 15.57L32.04 15.57Q32.62 16.06 33.53 16.38L33.53 16.38L33.53 16.38Q34.43 16.70 35.42 16.70L35.42 16.70L35.42 16.70Q36.85 16.70 37.52 16.24L37.52 16.24L37.52 16.24Q38.20 15.77 38.20 14.94L38.20 14.94L38.20 14.94Q38.20 14.35 37.83 14.00L37.83 14.00L37.83 14.00Q37.46 13.66 36.92 13.50L36.92 13.50L36.92 13.50Q36.38 13.34 35.42 13.16L35.42 13.16L35.42 13.16Q34.31 12.96 33.62 12.73L33.62 12.73L33.62 12.73Q32.94 12.49 32.45 11.97L32.45 11.97L32.45 11.97Q31.97 11.45 31.97 10.53L31.97 10.53L31.97 10.53Q31.97 9.41 32.90 8.69L32.90 8.69L32.90 8.69Q33.82 7.96 35.53 7.96L35.53 7.96L35.53 7.96Q36.43 7.96 37.31 8.21L37.31 8.21L37.31 8.21Q38.20 8.46 38.75 8.87L38.75 8.87L38.34 9.59L38.34 9.59Q37.76 9.18 37.03 8.96L37.03 8.96L37.03 8.96Q36.29 8.75 35.51 8.75L35.51 8.75L35.51 8.75Q34.20 8.75 33.53 9.23L33.53 9.23L33.53 9.23Q32.87 9.72 32.87 10.51L32.87 10.51L32.87 10.51Q32.87 11.14 33.25 11.49L33.25 11.49L33.25 11.49Q33.62 11.84 34.17 12.02L34.17 12.02L34.17 12.02Q34.72 12.19 35.71 12.38L35.71 12.38L35.71 12.38Q36.81 12.58 37.49 12.81L37.49 12.81L37.49 12.81Q38.16 13.03 38.63 13.54L38.63 13.54L38.63 13.54Q39.10 14.04 39.10 14.92L39.10 14.92L39.10 14.92Q39.10 16.09 38.12 16.79L38.12 16.79L38.12 16.79Q37.15 17.50 35.39 17.50L35.39 17.50ZM49.07 4.77L49.07 4.77Q47.30 4.77 47.30 6.66L47.30 6.66L47.30 8.03L50.31 8.03L50.31 8.80L47.32 8.80L47.32 17.42L46.42 17.42L46.42 8.80L44.69 8.80L44.69 8.03L46.42 8.03L46.42 6.59L46.42 6.59Q46.42 5.40 47.11 4.70L47.11 4.70L47.11 4.70Q47.79 4.00 49.03 4.00L49.03 4.00L49.03 4.00Q49.57 4.00 50.07 4.15L50.07 4.15L50.07 4.15Q50.56 4.30 50.89 4.61L50.89 4.61L50.53 5.29L50.53 5.29Q49.95 4.77 49.07 4.77L49.07 4.77ZM55.82 17.50L55.82 17.50Q54.49 17.50 53.42 16.88L53.42 16.88L53.42 16.88Q52.34 16.27 51.73 15.18L51.73 15.18L51.73 15.18Q51.12 14.09 51.12 12.73L51.12 12.73L51.12 12.73Q51.12 11.36 51.73 10.27L51.73 10.27L51.73 10.27Q52.34 9.18 53.42 8.57L53.42 8.57L53.42 8.57Q54.49 7.96 55.82 7.96L55.82 7.96L55.82 7.96Q57.15 7.96 58.22 8.57L58.22 8.57L58.22 8.57Q59.29 9.18 59.90 10.27L59.90 10.27L59.90 10.27Q60.52 11.36 60.52 12.73L60.52 12.73L60.52 12.73Q60.52 14.09 59.90 15.18L59.90 15.18L59.90 15.18Q59.29 16.27 58.22 16.88L58.22 16.88L58.22 16.88Q57.15 17.50 55.82 17.50L55.82 17.50ZM55.82 16.69L55.82 16.69Q56.90 16.69 57.75 16.18L57.75 16.18L57.75 16.18Q58.61 15.68 59.10 14.78L59.10 14.78L59.10 14.78Q59.60 13.88 59.60 12.73L59.60 12.73L59.60 12.73Q59.60 11.57 59.10 10.67L59.10 10.67L59.10 10.67Q58.61 9.77 57.75 9.27L57.75 9.27L57.75 9.27Q56.90 8.77 55.82 8.77L55.82 8.77L55.82 8.77Q54.74 8.77 53.88 9.27L53.88 9.27L53.88 9.27Q53.03 9.77 52.53 10.67L52.53 10.67L52.53 10.67Q52.04 11.57 52.04 12.73L52.04 12.73L52.04 12.73Q52.04 13.88 52.53 14.78L52.53 14.78L52.53 14.78Q53.03 15.68 53.88 16.18L53.88 16.18L53.88 16.18Q54.74 16.69 55.82 16.69L55.82 16.69ZM64.17 10.08L64.17 10.08Q64.60 9.05 65.52 8.51L65.52 8.51L65.52 8.51Q66.44 7.96 67.75 7.96L67.75 7.96L67.75 8.84L67.54 8.82L67.54 8.82Q65.97 8.82 65.09 9.80L65.09 9.80L65.09 9.80Q64.21 10.78 64.21 12.53L64.21 12.53L64.21 17.42L63.31 17.42L63.31 8.03L64.17 8.03L64.17 10.08ZM82.98 12.69L82.96 12.94L74.88 12.94L74.88 12.94Q74.92 14.04 75.44 14.90L75.44 14.90L75.44 14.90Q75.96 15.75 76.85 16.22L76.85 16.22L76.85 16.22Q77.74 16.69 78.86 16.69L78.86 16.69L78.86 16.69Q79.78 16.69 80.56 16.35L80.56 16.35L80.56 16.35Q81.34 16.02 81.86 15.37L81.86 15.37L82.39 15.97L82.39 15.97Q81.77 16.70 80.85 17.10L80.85 17.10L80.85 17.10Q79.92 17.50 78.84 17.50L78.84 17.50L78.84 17.50Q77.44 17.50 76.34 16.88L76.34 16.88L76.34 16.88Q75.24 16.27 74.62 15.19L74.62 15.19L74.62 15.19Q74.00 14.11 74.00 12.73L74.00 12.73L74.00 12.73Q74.00 11.36 74.58 10.27L74.58 10.27L74.58 10.27Q75.17 9.18 76.19 8.57L76.19 8.57L76.19 8.57Q77.22 7.96 78.50 7.96L78.50 7.96L78.50 7.96Q79.78 7.96 80.79 8.56L80.79 8.56L80.79 8.56Q81.81 9.16 82.40 10.24L82.40 10.24L82.40 10.24Q82.98 11.32 82.98 12.69L82.98 12.69ZM78.50 8.75L78.50 8.75Q77.51 8.75 76.72 9.19L76.72 9.19L76.72 9.19Q75.92 9.63 75.45 10.43L75.45 10.43L75.45 10.43Q74.97 11.23 74.90 12.24L74.90 12.24L82.10 12.24L82.10 12.24Q82.04 11.23 81.56 10.44L81.56 10.44L81.56 10.44Q81.07 9.65 80.28 9.20L80.28 9.20L80.28 9.20Q79.49 8.75 78.50 8.75L78.50 8.75ZM92.39 8.03L93.31 8.03L89.06 17.42L88.15 17.42L83.92 8.03L84.87 8.03L88.61 16.43L92.39 8.03ZM103.23 12.69L103.21 12.94L95.13 12.94L95.13 12.94Q95.17 14.04 95.69 14.90L95.69 14.90L95.69 14.90Q96.21 15.75 97.10 16.22L97.10 16.22L97.10 16.22Q97.99 16.69 99.11 16.69L99.11 16.69L99.11 16.69Q100.03 16.69 100.81 16.35L100.81 16.35L100.81 16.35Q101.59 16.02 102.11 15.37L102.11 15.37L102.64 15.97L102.64 15.97Q102.02 16.70 101.10 17.10L101.10 17.10L101.10 17.10Q100.17 17.50 99.09 17.50L99.09 17.50L99.09 17.50Q97.69 17.50 96.59 16.88L96.59 16.88L96.59 16.88Q95.49 16.27 94.87 15.19L94.87 15.19L94.87 15.19Q94.25 14.11 94.25 12.73L94.25 12.73L94.25 12.73Q94.25 11.36 94.83 10.27L94.83 10.27L94.83 10.27Q95.42 9.18 96.44 8.57L96.44 8.57L96.44 8.57Q97.47 7.96 98.75 7.96L98.75 7.96L98.75 7.96Q100.03 7.96 101.04 8.56L101.04 8.56L101.04 8.56Q102.06 9.16 102.65 10.24L102.65 10.24L102.65 10.24Q103.23 11.32 103.23 12.69L103.23 12.69ZM98.75 8.75L98.75 8.75Q97.76 8.75 96.97 9.19L96.97 9.19L96.97 9.19Q96.17 9.63 95.70 10.43L95.70 10.43L95.70 10.43Q95.22 11.23 95.15 12.24L95.15 12.24L102.35 12.24L102.35 12.24Q102.29 11.23 101.81 10.44L101.81 10.44L101.81 10.44Q101.32 9.65 100.53 9.20L100.53 9.20L100.53 9.20Q99.74 8.75 98.75 8.75L98.75 8.75ZM106.88 10.08L106.88 10.08Q107.32 9.05 108.23 8.51L108.23 8.51L108.23 8.51Q109.15 7.96 110.47 7.96L110.47 7.96L110.47 8.84L110.25 8.82L110.25 8.82Q108.68 8.82 107.80 9.80L107.80 9.80L107.80 9.80Q106.92 10.78 106.92 12.53L106.92 12.53L106.92 17.42L106.02 17.42L106.02 8.03L106.88 8.03L106.88 10.08ZM119.74 8.03L120.65 8.03L115.83 18.70L115.83 18.70Q115.29 19.94 114.58 20.47L114.58 20.47L114.58 20.47Q113.87 20.99 112.90 20.99L112.90 20.99L112.90 20.99Q112.25 20.99 111.68 20.77L111.68 20.77L111.68 20.77Q111.11 20.56 110.72 20.14L110.72 20.14L111.17 19.46L111.17 19.46Q111.89 20.20 112.91 20.20L112.91 20.20L112.91 20.20Q113.60 20.20 114.08 19.82L114.08 19.82L114.08 19.82Q114.57 19.44 114.98 18.52L114.98 18.52L115.49 17.39L111.26 8.03L112.21 8.03L115.97 16.43L119.74 8.03ZM126.29 17.50L126.29 17.50Q124.96 17.50 123.89 16.88L123.89 16.88L123.89 16.88Q122.81 16.27 122.20 15.18L122.20 15.18L122.20 15.18Q121.59 14.09 121.59 12.73L121.59 12.73L121.59 12.73Q121.59 11.36 122.20 10.27L122.20 10.27L122.20 10.27Q122.81 9.18 123.89 8.57L123.89 8.57L123.89 8.57Q124.96 7.96 126.29 7.96L126.29 7.96L126.29 7.96Q127.62 7.96 128.69 8.57L128.69 8.57L128.69 8.57Q129.76 9.18 130.37 10.27L130.37 10.27L130.37 10.27Q130.99 11.36 130.99 12.73L130.99 12.73L130.99 12.73Q130.99 14.09 130.37 15.18L130.37 15.18L130.37 15.18Q129.76 16.27 128.69 16.88L128.69 16.88L128.69 16.88Q127.62 17.50 126.29 17.50L126.29 17.50ZM126.29 16.69L126.29 16.69Q127.37 16.69 128.22 16.18L128.22 16.18L128.22 16.18Q129.08 15.68 129.57 14.78L129.57 14.78L129.57 14.78Q130.07 13.88 130.07 12.73L130.07 12.73L130.07 12.73Q130.07 11.57 129.57 10.67L129.57 10.67L129.57 10.67Q129.08 9.77 128.22 9.27L128.22 9.27L128.22 9.27Q127.37 8.77 126.29 8.77L126.29 8.77L126.29 8.77Q125.21 8.77 124.35 9.27L124.35 9.27L124.35 9.27Q123.50 9.77 123.00 10.67L123.00 10.67L123.00 10.67Q122.51 11.57 122.51 12.73L122.51 12.73L122.51 12.73Q122.51 13.88 123.00 14.78L123.00 14.78L123.00 14.78Q123.50 15.68 124.35 16.18L124.35 16.18L124.35 16.18Q125.21 16.69 126.29 16.69L126.29 16.69ZM138.37 7.96L138.37 7.96Q140.13 7.96 141.16 8.98L141.16 8.98L141.16 8.98Q142.18 10.01 142.18 11.93L142.18 11.93L142.18 17.42L141.28 17.42L141.28 12.01L141.28 12.01Q141.28 10.42 140.48 9.59L140.48 9.59L140.48 9.59Q139.68 8.77 138.24 8.77L138.24 8.77L138.24 8.77Q136.58 8.77 135.63 9.76L135.63 9.76L135.63 9.76Q134.68 10.75 134.68 12.42L134.68 12.42L134.68 17.42L133.78 17.42L133.78 8.03L134.64 8.03L134.64 10.06L134.64 10.06Q135.13 9.07 136.09 8.51L136.09 8.51L136.09 8.51Q137.05 7.96 138.37 7.96L138.37 7.96ZM153.85 12.69L153.83 12.94L145.75 12.94L145.75 12.94Q145.78 14.04 146.30 14.90L146.30 14.90L146.30 14.90Q146.83 15.75 147.72 16.22L147.72 16.22L147.72 16.22Q148.61 16.69 149.72 16.69L149.72 16.69L149.72 16.69Q150.64 16.69 151.43 16.35L151.43 16.35L151.43 16.35Q152.21 16.02 152.73 15.37L152.73 15.37L153.25 15.97L153.25 15.97Q152.64 16.70 151.71 17.10L151.71 17.10L151.71 17.10Q150.79 17.50 149.71 17.50L149.71 17.50L149.71 17.50Q148.30 17.50 147.20 16.88L147.20 16.88L147.20 16.88Q146.11 16.27 145.49 15.19L145.49 15.19L145.49 15.19Q144.86 14.11 144.86 12.73L144.86 12.73L144.86 12.73Q144.86 11.36 145.45 10.27L145.45 10.27L145.45 10.27Q146.03 9.18 147.06 8.57L147.06 8.57L147.06 8.57Q148.09 7.96 149.36 7.96L149.36 7.96L149.36 7.96Q150.64 7.96 151.66 8.56L151.66 8.56L151.66 8.56Q152.68 9.16 153.26 10.24L153.26 10.24L153.26 10.24Q153.85 11.32 153.85 12.69L153.85 12.69ZM149.36 8.75L149.36 8.75Q148.37 8.75 147.58 9.19L147.58 9.19L147.58 9.19Q146.79 9.63 146.31 10.43L146.31 10.43L146.31 10.43Q145.84 11.23 145.76 12.24L145.76 12.24L152.96 12.24L152.96 12.24Q152.91 11.23 152.42 10.44L152.42 10.44L152.42 10.44Q151.94 9.65 151.15 9.20L151.15 9.20L151.15 9.20Q150.35 8.75 149.36 8.75L149.36 8.75Z" transform="rotate(0 77.10500276088715 12.494999885559082)"></path><defs id="SvgjsDefs1020"></defs></svg></g></svg>